<svg width="50" height="50" viewBox="0 0 50 50" fill="none" xmlns="http://www.w3.org/2000/svg">
<path d="M24.8047 6.23853C21.5772 6.23742 18.405 7.0811 15.5997 8.68664C12.7944 10.2922 10.4526 12.6044 8.80433 15.396C7.15607 18.1877 6.25808 21.3627 6.1986 24.609C6.13911 27.8555 6.92018 31.0616 8.46505 33.9124L6.26371 41.6793C6.18624 41.9521 6.18418 42.2409 6.25774 42.5147C6.33129 42.7885 6.47768 43.0369 6.68114 43.2332C6.88461 43.4297 7.13745 43.5665 7.41245 43.629C7.68743 43.6916 7.97418 43.6775 8.24182 43.5882L15.4907 41.1584C17.9615 42.5947 20.7274 43.44 23.5747 43.6288C26.4221 43.8177 29.2744 43.345 31.911 42.2474C34.5478 41.1499 36.8981 39.4566 38.7803 37.299C40.6627 35.1413 42.0262 32.5771 42.7657 29.8043C43.5053 27.0316 43.6009 24.125 43.0452 21.3093C42.4894 18.4934 41.2974 15.844 39.561 13.5659C37.8247 11.2877 35.5907 9.442 33.0319 8.17141C30.4732 6.90084 27.6581 6.23948 24.8047 6.23853ZM18.6037 21.8347C18.6037 21.421 18.7669 21.0244 19.0577 20.7319C19.3484 20.4394 19.7428 20.2752 20.1538 20.2752H29.4554C29.8665 20.2752 30.2609 20.4394 30.5516 20.7319C30.8424 21.0244 31.0056 21.421 31.0056 21.8347C31.0056 22.2484 30.8424 22.645 30.5516 22.9375C30.2609 23.23 29.8665 23.3943 29.4554 23.3943H20.1538C19.7428 23.3943 19.3484 23.23 19.0577 22.9375C18.7669 22.645 18.6037 22.2484 18.6037 21.8347ZM20.1538 26.5135H26.3549C26.766 26.5135 27.1603 26.678 27.451 26.9703C27.7418 27.2628 27.9052 27.6596 27.9052 28.0732C27.9052 28.4868 27.7418 28.8835 27.451 29.176C27.1603 29.4685 26.766 29.6328 26.3549 29.6328H20.1538C19.7428 29.6328 19.3484 29.4685 19.0577 29.176C18.7669 28.8835 18.6037 28.4868 18.6037 28.0732C18.6037 27.6596 18.7669 27.2628 19.0577 26.9703C19.3484 26.678 19.7428 26.5135 20.1538 26.5135Z" fill="white"/>
</svg>
