<svg width="19" height="18" viewBox="0 0 19 18" fill="none" xmlns="http://www.w3.org/2000/svg">
<g clip-path="url(#clip0_35_287)">
<path d="M0.849609 2.81458C0.849609 2.23737 1.05232 1.76118 1.45772 1.38601C1.86312 1.01083 2.39016 0.823242 3.0388 0.823242C3.67587 0.823242 4.1913 1.00793 4.58513 1.37735C4.99053 1.75831 5.19324 2.25469 5.19324 2.86653C5.19324 3.42064 4.99633 3.88239 4.60251 4.25181C4.19711 4.63276 3.66428 4.82324 3.00405 4.82324H2.98667C2.3496 4.82324 1.83417 4.63276 1.44034 4.25181C1.04651 3.87086 0.849609 3.39178 0.849609 2.81458ZM1.07548 17.9661V6.399H4.93262V17.9661H1.07548ZM7.06969 17.9661H10.9268V11.5072C10.9268 11.1032 10.9732 10.7915 11.0658 10.5722C11.228 10.1797 11.4741 9.84776 11.8042 9.57649C12.1344 9.3052 12.5484 9.16956 13.0465 9.16956C14.3438 9.16956 14.9925 10.0411 14.9925 11.7843V17.9661H18.8496V11.3341C18.8496 9.62554 18.4442 8.32973 17.6334 7.44662C16.8226 6.5635 15.7512 6.12194 14.4191 6.12194C12.9249 6.12194 11.7608 6.76263 10.9268 8.04402V8.07865H10.9095L10.9268 8.04402V6.399H7.06969C7.09285 6.7684 7.10444 7.91702 7.10444 9.84488C7.10444 11.7727 7.09285 14.4798 7.06969 17.9661Z" fill="#A3B3BC"/>
</g>
<defs>
<clipPath id="clip0_35_287">
<rect width="19" height="18" fill="white"/>
</clipPath>
</defs>
</svg>
