<svg width="50" height="50" viewBox="0 0 50 50" fill="none" xmlns="http://www.w3.org/2000/svg">
<path d="M35.9375 18.7503C35.9375 20.9134 35.2961 23.0281 34.0942 24.8267C32.8923 26.6254 31.1842 28.0273 29.1856 28.8551C27.187 29.6829 24.9878 29.8995 22.8662 29.4776C20.7445 29.0556 18.7956 28.0139 17.2661 26.4842C15.7364 24.9545 14.6947 23.0056 14.2726 20.884C13.8506 18.7623 14.0672 16.5631 14.8951 14.5646C15.723 12.566 17.1248 10.8578 18.9234 9.656C20.7222 8.45417 22.8367 7.8127 25 7.8127C27.9008 7.8127 30.6828 8.96504 32.7341 11.0162C34.7852 13.0674 35.9375 15.8493 35.9375 18.7503ZM42.1875 18.7503C42.1878 21.282 41.6277 23.7823 40.547 26.072C39.4664 28.3615 37.8922 30.3834 35.9375 31.9925V46.8753C35.9375 47.2897 35.7728 47.687 35.4798 47.9801C35.1869 48.2731 34.7894 48.4378 34.375 48.4378C34.1327 48.4326 33.8936 48.3795 33.6719 48.2815L25 43.9261L16.3281 48.2815C16.0887 48.3997 15.823 48.4547 15.5562 48.4409C15.2895 48.4273 15.0308 48.3454 14.8047 48.2034C14.5768 48.065 14.3886 47.8698 14.2585 47.6372C14.1284 47.4043 14.0609 47.1418 14.0625 46.8753V31.9925C11.828 30.149 10.0956 27.7707 9.02635 25.0787C7.95707 22.3865 7.58556 19.4678 7.94632 16.5936C8.30707 13.7194 9.38842 10.983 11.0899 8.63865C12.7913 6.29429 15.0577 4.41798 17.6784 3.18403C20.2992 1.95009 23.1894 1.39854 26.0805 1.58062C28.9714 1.76272 31.7695 2.67253 34.2147 4.22554C36.66 5.77856 38.673 7.9244 40.0669 10.4637C41.4608 13.003 42.1902 15.8534 42.1875 18.7503ZM39.0625 18.7503C39.0625 15.9689 38.2378 13.2501 36.6925 10.9375C35.1473 8.62492 32.9511 6.8225 30.3816 5.75814C27.8119 4.69378 24.9844 4.41529 22.2566 4.9579C19.5287 5.50051 17.023 6.83983 15.0563 8.80651C13.0896 10.7732 11.7503 13.2789 11.2077 16.0067C10.6651 18.7347 10.9436 21.5622 12.0079 24.1317C13.0723 26.7012 14.8747 28.8975 17.1873 30.4428C19.4998 31.9879 22.2187 32.8128 25 32.8128C28.728 32.8075 32.3019 31.3243 34.938 28.6882C37.5741 26.052 39.0573 22.4782 39.0625 18.7503Z" fill="white"/>
</svg>
