<svg width="150" height="25" viewBox="0 0 150 25" fill="none" xmlns="http://www.w3.org/2000/svg">
<g clip-path="url(#clip0_20_16)">
<path d="M28.125 0H0V25H28.125V0Z" fill="#00B67A"/>
<path d="M58.5938 0H30.4688V25H58.5938V0Z" fill="#00B67A"/>
<path d="M89.0625 0H60.9375V25H89.0625V0Z" fill="#00B67A"/>
<path d="M119.531 0H91.4062V25H119.531V0Z" fill="#00B67A"/>
<path d="M150 0H121.875V25H150V0Z" fill="#00B67A"/>
<path d="M14.0625 16.849L18.3398 15.8854L20.127 20.7813L14.0625 16.849ZM23.9062 10.5208H16.377L14.0625 4.21875L11.748 10.5208H4.21875L10.3125 14.4271L7.99805 20.7292L14.0918 16.8229L17.8418 14.4271L23.9062 10.5208Z" fill="white"/>
<path d="M44.5312 16.849L48.8086 15.8854L50.5957 20.7813L44.5312 16.849ZM54.375 10.5208H46.8457L44.5312 4.21875L42.2168 10.5208H34.6875L40.7812 14.4271L38.4668 20.7292L44.5605 16.8229L48.3105 14.4271L54.375 10.5208Z" fill="white"/>
<path d="M75 16.849L79.2773 15.8854L81.0645 20.7813L75 16.849ZM84.8438 10.5208H77.3145L75 4.21875L72.6856 10.5208H65.1562L71.25 14.4271L68.9355 20.7292L75.0293 16.8229L78.7793 14.4271L84.8438 10.5208Z" fill="white"/>
<path d="M105.469 16.849L109.746 15.8854L111.533 20.7813L105.469 16.849ZM115.313 10.5208H107.783L105.469 4.21875L103.154 10.5208H95.625L101.719 14.4271L99.4043 20.7292L105.498 16.8229L109.248 14.4271L115.313 10.5208Z" fill="white"/>
<path d="M135.938 16.849L140.215 15.8854L142.002 20.7813L135.938 16.849ZM145.781 10.5208H138.252L135.938 4.21875L133.623 10.5208H126.094L132.188 14.4271L129.873 20.7292L135.967 16.8229L139.717 14.4271L145.781 10.5208Z" fill="white"/>
</g>
<defs>
<clipPath id="clip0_20_16">
<rect width="150" height="25" fill="white"/>
</clipPath>
</defs>
</svg>
