<svg width="19" height="16" viewBox="0 0 19 16" fill="none" xmlns="http://www.w3.org/2000/svg">
<g clip-path="url(#clip0_35_281)">
<path d="M12.8767 0.596015V0.592773H13.7207L14.0291 0.654365C14.2346 0.694352 14.4213 0.746753 14.589 0.811587C14.7567 0.876421 14.9191 0.952065 15.0759 1.0385C15.2328 1.12494 15.3751 1.21302 15.5028 1.3027C15.6294 1.39131 15.743 1.48532 15.8437 1.58473C15.9432 1.68522 16.0985 1.71115 16.3095 1.66253C16.5205 1.6139 16.7477 1.54636 16.9912 1.45992C17.2346 1.37348 17.4754 1.27623 17.7135 1.16817C17.9515 1.06011 18.0965 0.9915 18.1485 0.962325C18.1993 0.93208 18.2264 0.915872 18.2296 0.9137L18.2328 0.908837L18.2491 0.900733L18.2653 0.892629L18.2815 0.884525L18.2978 0.876421L18.301 0.871558L18.3059 0.868316L18.3108 0.865075L18.314 0.860212L18.3302 0.85535L18.3465 0.852108L18.3432 0.876421L18.3383 0.900733L18.3302 0.925046L18.3221 0.949358L18.314 0.965567L18.3059 0.981775L18.2978 1.00609C18.2924 1.0223 18.287 1.0439 18.2815 1.07092C18.2761 1.09794 18.2247 1.20599 18.1273 1.39509C18.03 1.58419 17.9082 1.77599 17.7621 1.97049C17.6161 2.16499 17.4851 2.31193 17.3694 2.41136C17.2525 2.51185 17.1751 2.58208 17.1373 2.62207C17.0994 2.66312 17.0534 2.70094 16.9993 2.73552L16.9181 2.78901L16.9019 2.79712L16.8857 2.80522L16.8824 2.81008L16.8776 2.81333L16.8727 2.81657L16.8694 2.82143L16.8532 2.82953L16.837 2.83764L16.8338 2.8425L16.8289 2.84574L16.824 2.84898L16.8208 2.85385L16.8175 2.85871L16.8126 2.86195L16.8078 2.86519L16.8045 2.87005H16.8857L17.3401 2.7728C17.6431 2.70797 17.9326 2.62964 18.2085 2.53778L18.6467 2.39191L18.6954 2.3757L18.7198 2.36759L18.736 2.35949L18.7522 2.35139L18.7685 2.34328L18.7847 2.33518L18.8171 2.33031L18.8496 2.32707V2.35949L18.8415 2.36273L18.8334 2.36759L18.8301 2.37246L18.8253 2.3757L18.8204 2.37894L18.8171 2.3838L18.8139 2.38867L18.809 2.39191L18.8042 2.39515L18.8009 2.40001L18.7977 2.40487L18.7928 2.40812L18.7847 2.42432L18.7766 2.44053L18.7717 2.44377C18.7695 2.44702 18.7008 2.53885 18.5656 2.71932C18.4303 2.90085 18.3573 2.99269 18.3465 2.99486C18.3356 2.9981 18.3205 3.01431 18.301 3.04348C18.2826 3.07373 18.1679 3.19422 17.9569 3.40493C17.7459 3.61564 17.5393 3.80311 17.3369 3.96736C17.1335 4.13269 17.0307 4.33583 17.0285 4.5768C17.0253 4.81668 17.0128 5.08792 16.9912 5.39046C16.9695 5.69302 16.929 6.01988 16.8694 6.37107C16.8099 6.72226 16.718 7.11936 16.5935 7.56239C16.4691 8.00541 16.3176 8.43764 16.1391 8.85906C15.9605 9.28048 15.7739 9.65867 15.5791 9.99365C15.3843 10.3286 15.2058 10.6123 15.0435 10.8446C14.8812 11.0769 14.7162 11.2957 14.5484 11.501C14.3807 11.7063 14.1687 11.9376 13.9122 12.1948C13.6547 12.4508 13.514 12.5913 13.4902 12.6162C13.4653 12.6399 13.3593 12.7286 13.1721 12.882C12.986 13.0365 12.7858 13.191 12.5715 13.3455C12.3584 13.499 12.1625 13.627 11.984 13.7297C11.8054 13.8323 11.5901 13.9496 11.338 14.0814C11.087 14.2143 10.8153 14.3375 10.5232 14.451C10.231 14.5644 9.92265 14.6698 9.59803 14.767C9.27341 14.8643 8.95962 14.9399 8.65664 14.9939C8.35368 15.048 8.01012 15.0939 7.62598 15.1317L7.04979 15.1884V15.1965H5.99479V15.1884L5.85682 15.1803C5.76486 15.1749 5.68911 15.1695 5.62959 15.1641C5.57009 15.1587 5.34555 15.129 4.95601 15.075C4.56647 15.021 4.2608 14.9669 4.03897 14.9129C3.81716 14.8589 3.48712 14.7562 3.04889 14.6049C2.61066 14.4537 2.23572 14.3008 1.92409 14.1462C1.61355 13.9928 1.41878 13.8955 1.33978 13.8545C1.26187 13.8145 1.17423 13.7648 1.07684 13.7054L0.930764 13.6162L0.927534 13.6114L0.922648 13.6081L0.917779 13.6049L0.914533 13.6L0.898302 13.5919L0.882071 13.5838L0.878841 13.579L0.873956 13.5757L0.869086 13.5725L0.86584 13.5676L0.86261 13.5627L0.857725 13.5595H0.849609V13.5271L0.86584 13.5303L0.882071 13.5352L0.95511 13.5433C1.0038 13.5487 1.13636 13.5568 1.35277 13.5676C1.56919 13.5784 1.79911 13.5784 2.04258 13.5676C2.28604 13.5568 2.53492 13.5325 2.78919 13.4947C3.04348 13.4569 3.34375 13.392 3.69001 13.3002C4.03627 13.2083 4.3544 13.0992 4.6444 12.9728C4.9333 12.8453 5.13888 12.7502 5.26117 12.6875C5.38235 12.6259 5.56738 12.5114 5.81625 12.3439L6.18956 12.0926L6.1928 12.0878L6.19767 12.0845L6.20256 12.0813L6.20579 12.0764L6.20903 12.0716L6.2139 12.0683L6.21879 12.0651L6.22202 12.0602L6.23825 12.0554L6.25448 12.0521L6.25772 12.0359L6.26259 12.0197L6.26748 12.0165L6.27071 12.0116L6.14086 12.0035C6.0543 11.9981 5.97044 11.9927 5.88928 11.9873C5.80813 11.9819 5.68099 11.9576 5.50786 11.9143C5.33474 11.8711 5.14809 11.8063 4.9479 11.7198C4.74772 11.6334 4.55295 11.5307 4.36359 11.4119C4.17424 11.293 4.03735 11.1941 3.95295 11.1153C3.86963 11.0375 3.76142 10.9273 3.62833 10.7846C3.49632 10.6409 3.38162 10.4934 3.28424 10.3421C3.18685 10.1909 3.0938 10.0163 3.00508 9.8186L2.87035 9.52361L2.86223 9.49929L2.85412 9.47498L2.84925 9.45877L2.846 9.44256L2.87035 9.44581L2.8947 9.45067L3.07323 9.47498C3.19227 9.49119 3.37893 9.49659 3.6332 9.49119C3.88749 9.48579 4.06332 9.47498 4.1607 9.45877C4.25809 9.44256 4.3176 9.43175 4.33924 9.42636L4.3717 9.41825L4.41228 9.41015L4.45286 9.40204L4.4561 9.39718L4.46097 9.39394L4.46586 9.3907L4.46909 9.38583L4.43662 9.37773L4.40416 9.36963L4.3717 9.36152L4.33924 9.35342L4.30678 9.34531C4.28514 9.33992 4.24728 9.32911 4.19316 9.3129C4.13906 9.29669 3.99299 9.23725 3.75493 9.1346C3.51689 9.03196 3.32752 8.932 3.18685 8.83475C3.04583 8.73722 2.91137 8.63055 2.78433 8.51544C2.65772 8.39874 2.51869 8.24854 2.36719 8.06485C2.21571 7.88116 2.08046 7.66774 1.96142 7.42462C1.8424 7.18149 1.75313 6.94918 1.69361 6.72766C1.63433 6.50744 1.59522 6.2823 1.57677 6.05501L1.54754 5.71463L1.56377 5.71787L1.58 5.72273L1.59623 5.73084L1.61246 5.73894L1.62869 5.74705L1.64492 5.75515L1.8965 5.86861C2.06423 5.94426 2.27252 6.00909 2.52139 6.06311C2.77027 6.11713 2.91904 6.14686 2.96773 6.15226L3.04077 6.16036H3.18685L3.18362 6.1555L3.17873 6.15226L3.17387 6.14902L3.17062 6.14415L3.16739 6.13929L3.1625 6.13605L3.15763 6.13281L3.15439 6.12794L3.13816 6.11984L3.12193 6.11174L3.1187 6.10687L3.11381 6.10363L3.10894 6.10039L3.1057 6.09553L3.08947 6.08742L3.07323 6.07932L3.07 6.07446C3.06676 6.07229 3.02022 6.03771 2.9304 5.97072C2.84167 5.90265 2.74862 5.81459 2.65123 5.70653C2.55385 5.59846 2.45646 5.48501 2.35908 5.36615C2.26151 5.24702 2.17461 5.11957 2.09938 4.98525C2.02365 4.85019 1.94357 4.67836 1.85917 4.46982C1.77585 4.26236 1.71255 4.05327 1.66927 3.84256C1.626 3.63185 1.60165 3.42385 1.59623 3.21854C1.59082 3.01322 1.59623 2.83764 1.61246 2.69176C1.62869 2.54589 1.66115 2.3811 1.70984 2.19741C1.75854 2.01372 1.82888 1.81922 1.92084 1.6139L2.05881 1.30594L2.06692 1.28163L2.07504 1.25732L2.07992 1.25408L2.08315 1.24921L2.0864 1.24435L2.09127 1.24111L2.09615 1.24435L2.09938 1.24921L2.10263 1.25408L2.1075 1.25732L2.11238 1.26056L2.11561 1.26542L2.11886 1.27028L2.12373 1.27353L2.13185 1.28973L2.13996 1.30594L2.14485 1.30919L2.14808 1.31405L2.36719 1.55717C2.51327 1.71926 2.6864 1.90026 2.88658 2.10016C3.08677 2.30005 3.19768 2.40379 3.21931 2.41136C3.24096 2.42 3.268 2.44484 3.30047 2.48592C3.33293 2.5259 3.44114 2.62153 3.62508 2.7728C3.80904 2.92408 4.0498 3.09968 4.34736 3.29958C4.64493 3.49948 4.97495 3.69668 5.33744 3.89118C5.69994 4.08569 6.08948 4.26127 6.50606 4.41796C6.92265 4.57464 7.21481 4.67729 7.38252 4.72592C7.55025 4.77454 7.83699 4.83667 8.24276 4.91231C8.64853 4.98796 8.95422 5.03658 9.1598 5.05819C9.36539 5.0798 9.50607 5.09223 9.5818 5.09547L9.69542 5.09871L9.69219 5.0744L9.6873 5.05009L9.65484 4.84748C9.6332 4.71242 9.62238 4.52331 9.62238 4.28019C9.62238 4.03706 9.64132 3.81285 9.67919 3.60754C9.71707 3.40223 9.77388 3.19422 9.84961 2.98351C9.92536 2.7728 9.99949 2.60369 10.072 2.47619C10.1456 2.34976 10.2419 2.20551 10.3609 2.04343C10.4799 1.88134 10.6341 1.71386 10.8235 1.54097C11.0128 1.36807 11.2292 1.21409 11.4727 1.07903C11.7162 0.943961 11.9407 0.841297 12.1463 0.771066C12.3519 0.700835 12.525 0.6549 12.6657 0.633294C12.8063 0.611689 12.8767 0.599257 12.8767 0.596015Z" fill="#A3B3BC"/>
</g>
<defs>
<clipPath id="clip0_35_281">
<rect width="19" height="16" fill="white"/>
</clipPath>
</defs>
</svg>
