<svg width="18" height="14" viewBox="0 0 18 14" fill="none" xmlns="http://www.w3.org/2000/svg">
<g clip-path="url(#clip0_171_126)">
<path d="M15.2477 1.17085C14.0825 0.6257 12.8367 0.229504 11.5342 0.00390625C11.3742 0.293114 11.1873 0.682105 11.0585 0.991546C9.67387 0.78332 8.30201 0.78332 6.94287 0.991546C6.81404 0.682105 6.62292 0.293114 6.46152 0.00390625C5.1576 0.229504 3.91032 0.627156 2.74514 1.17374C0.394982 4.72515 -0.242108 8.18834 0.0764374 11.6024C1.63519 12.7664 3.14581 13.4735 4.63093 13.9362C4.99762 13.4316 5.32465 12.8951 5.60638 12.3297C5.06981 12.1258 4.5559 11.8742 4.07031 11.5821C4.19913 11.4867 4.32514 11.3869 4.44689 11.2842C7.40865 12.6695 10.6267 12.6695 13.5531 11.2842C13.6762 11.3869 13.8022 11.4867 13.9296 11.5821C13.4426 11.8756 12.9273 12.1273 12.3907 12.3312C12.6724 12.8951 12.9981 13.433 13.3662 13.9377C14.8527 13.4749 16.3647 12.7678 17.9235 11.6024C18.2973 7.64464 17.285 4.21325 15.2477 1.17085ZM6.00988 9.50277C5.12079 9.50277 4.39166 8.67275 4.39166 7.66199C4.39166 6.65123 5.10522 5.81977 6.00988 5.81977C6.91457 5.81977 7.64367 6.64977 7.6281 7.66199C7.62951 8.67275 6.91457 9.50277 6.00988 9.50277ZM11.9901 9.50277C11.101 9.50277 10.3718 8.67275 10.3718 7.66199C10.3718 6.65123 11.0854 5.81977 11.9901 5.81977C12.8947 5.81977 13.6238 6.64977 13.6083 7.66199C13.6083 8.67275 12.8947 9.50277 11.9901 9.50277Z" fill="#A3B3BC"/>
</g>
<defs>
<clipPath id="clip0_171_126">
<rect width="18" height="14" fill="white"/>
</clipPath>
</defs>
</svg>
