<svg width="18" height="17" viewBox="0 0 18 17" fill="none" xmlns="http://www.w3.org/2000/svg">
<g clip-path="url(#clip0_171_136)">
<path d="M8.97322 7.3053e-07C4.0155 -0.00195015 0 3.90372 0 8.72435C0 12.5364 2.51194 15.7768 6.01022 16.9668C6.48133 17.0819 6.40916 16.7561 6.40916 16.5337V15.0218C3.68873 15.332 3.57846 13.5801 3.39603 13.2875C3.02716 12.6749 2.1551 12.5188 2.41571 12.2262C3.03518 11.916 3.66667 12.3042 4.3984 13.3557C4.92766 14.1185 5.9601 13.9898 6.48334 13.863C6.59761 13.4045 6.84218 12.9948 7.17898 12.6768C4.36031 12.1852 3.18553 10.5114 3.18553 8.52146C3.18553 7.55577 3.51231 6.66812 4.15383 5.95215C3.74486 4.77186 4.19192 3.7613 4.25206 3.61109C5.41681 3.50964 6.62768 4.42265 6.7219 4.49484C7.38346 4.32121 8.13925 4.22952 8.98525 4.22952C9.83526 4.22952 10.5931 4.32511 11.2606 4.50069C11.4872 4.33291 12.6098 3.54866 13.6924 3.64425C13.7505 3.79447 14.1876 4.78162 13.8026 5.94629C14.4522 6.66422 14.783 7.55967 14.783 8.52731C14.783 10.5211 13.6002 12.1969 10.7735 12.6807C11.0156 12.9124 11.2078 13.1888 11.339 13.4936C11.4701 13.7984 11.5375 14.1256 11.5373 14.456V16.6508C11.5533 16.8264 11.5373 17 11.838 17C15.3884 15.8353 17.9444 12.5715 17.9444 8.7263C17.9444 3.90372 13.9269 7.3053e-07 8.97322 7.3053e-07Z" fill="#A3B3BC"/>
</g>
<defs>
<clipPath id="clip0_171_136">
<rect width="18" height="17" fill="white"/>
</clipPath>
</defs>
</svg>
