<svg width="19" height="20" viewBox="0 0 19 20" fill="none" xmlns="http://www.w3.org/2000/svg">
<path fill-rule="evenodd" clip-rule="evenodd" d="M0.849609 9.89453C0.849609 6.29939 0.849609 4.50182 1.7063 3.20708C2.08886 2.62892 2.584 2.13378 3.16216 1.75122C4.4569 0.894531 6.25447 0.894531 9.84961 0.894531C13.4447 0.894531 15.2423 0.894531 16.5371 1.75122C17.1152 2.13378 17.6104 2.62892 17.9929 3.20708C18.8496 4.50182 18.8496 6.29939 18.8496 9.89453C18.8496 13.4897 18.8496 15.2872 17.9929 16.582C17.6104 17.1601 17.1152 17.6553 16.5371 18.0378C15.2423 18.8945 13.4447 18.8945 9.84961 18.8945C6.25447 18.8945 4.4569 18.8945 3.16216 18.0378C2.584 17.6553 2.08886 17.1601 1.7063 16.582C0.849609 15.2872 0.849609 13.4897 0.849609 9.89453ZM14.5092 9.89458C14.5092 12.4679 12.4231 14.554 9.84981 14.554C7.27649 14.554 5.1904 12.4679 5.1904 9.89458C5.1904 7.32125 7.27649 5.23517 9.84981 5.23517C12.4231 5.23517 14.5092 7.32125 14.5092 9.89458ZM9.84981 12.9776C11.5525 12.9776 12.9328 11.5973 12.9328 9.89458C12.9328 8.19188 11.5525 6.81157 9.84981 6.81157C8.14712 6.81157 6.76681 8.19188 6.76681 9.89458C6.76681 11.5973 8.14712 12.9776 9.84981 12.9776ZM14.6932 6.0959C15.2979 6.0959 15.7881 5.60573 15.7881 5.00107C15.7881 4.39642 15.2979 3.90625 14.6932 3.90625C14.0886 3.90625 13.5984 4.39642 13.5984 5.00107C13.5984 5.60573 14.0886 6.0959 14.6932 6.0959Z" fill="#A3B3BC"/>
</svg>
