<svg width="27" height="27" viewBox="0 0 27 27" fill="none" xmlns="http://www.w3.org/2000/svg">
<g clip-path="url(#clip0_171_217)">
<path d="M23.3633 20.6358C22.7389 20.0377 22.1311 19.4223 21.5407 18.7905C21.0447 18.2865 20.746 17.9198 20.746 17.9198L17.0127 16.1372C18.5073 14.442 19.3322 12.2598 19.3327 9.99984C19.3327 4.8545 15.146 0.666504 9.99935 0.666504C4.85268 0.666504 0.666016 4.8545 0.666016 9.99984C0.666016 15.1452 4.85268 19.3332 9.99935 19.3332C12.35 19.3332 14.4927 18.4532 16.1367 17.0145L17.9193 20.7478C17.9193 20.7478 18.286 21.0465 18.79 21.5425C19.306 22.0265 19.9847 22.6812 20.6353 23.3652L22.446 25.2212L23.2513 26.0825L26.0793 23.2545L25.218 22.4492C24.7127 21.9532 24.038 21.2945 23.3633 20.6358ZM9.99935 16.6665C6.32335 16.6665 3.33268 13.6758 3.33268 9.99984C3.33268 6.32384 6.32335 3.33317 9.99935 3.33317C13.6753 3.33317 16.666 6.32384 16.666 9.99984C16.666 13.6758 13.6753 16.6665 9.99935 16.6665Z" fill="white"/>
</g>
<defs>
<clipPath id="clip0_171_217">
<rect width="27" height="27" fill="white"/>
</clipPath>
</defs>
</svg>
